<svg xmlns="http://www.w3.org/2000/svg" viewBox="0 0 512 512">
  <defs>
    <radialGradient id="mask-bg" cx="34%" cy="24%">
      <stop offset="0" stop-color="#1b426f"/>
      <stop offset="0.62" stop-color="#0a1c37"/>
      <stop offset="1" stop-color="#040b19"/>
    </radialGradient>
    <linearGradient id="mask-chain" x1="0" y1="0" x2="1" y2="1">
      <stop stop-color="#65ffe0"/>
      <stop offset="0.54" stop-color="#3aa8ff"/>
      <stop offset="1" stop-color="#ff69a8"/>
    </linearGradient>
  </defs>
  <rect width="512" height="512" fill="url(#mask-bg)"/>
  <circle cx="256" cy="256" r="196" fill="none" stroke="#66f7e0" stroke-opacity=".1" stroke-width="8"/>
  <path d="M159 260c25-68 130-89 196-36 39 31 47 88 14 120-29 28-82 20-88-16-5-31 28-50 56-31" fill="none" stroke="url(#mask-chain)" stroke-width="60" stroke-linecap="round"/>
  <circle cx="164" cy="252" r="58" fill="#69ffe0"/>
  <circle cx="145" cy="241" r="12" fill="#071326"/>
  <circle cx="181" cy="238" r="12" fill="#071326"/>
  <circle cx="141" cy="236" r="4" fill="#fff"/>
  <circle cx="177" cy="233" r="4" fill="#fff"/>
  <path d="M144 271c13 14 29 14 42 0" fill="none" stroke="#071326" stroke-width="8" stroke-linecap="round"/>
  <circle cx="374" cy="348" r="13" fill="#ffd164"/>
  <circle cx="398" cy="303" r="9" fill="#ff69a8"/>
</svg>
